<?xml version="1.0" encoding="UTF-8"?>
<svg xmlns="http://www.w3.org/2000/svg" version="1.1" viewBox="0 0 1024 1024">
  <defs>
    <style>
      .cls-1 {
        fill: #00706a;
      }
    </style>
  </defs>
  <!-- Generator: Adobe Illustrator 28.6.0, SVG Export Plug-In . SVG Version: 1.2.0 Build 709)  -->
  <g>
    <g id="Layer_1">
      <g>
        <path class="cls-1" d="M989.6,530.2c-.56-24.29-20.43-43.81-44.86-43.81h-218.38c-24.79,0-44.88,20.09-44.88,44.88s20.09,44.88,44.88,44.88h169.1c-4.21,26.91-11.23,53.23-21.27,78.32-78.97,200.4-320.55,288.44-506.92,178.11-214.54-126.99-224.14-437.94-8.14-567.81,92.03-55.88,213.55-58.44,307.49-6.3,32.93,17.99,61.42,42.41,86.08,70.09,111.08,101.44,262.23-51.2,159.43-161.3C742.19-6.98,453.47-36.59,254.53,103.25-55.98,315.13-35.95,781.68,299.69,956.45c199.94,103.89,453.78,50.49,591.72-127.99,66.18-84.23,101.5-191.7,98.18-298.25Z"/>
        <path class="cls-1" d="M671.1,705.86c-29.1,0-52.69-23.59-52.69-52.69v-245.12c0-29.1,23.59-52.69,52.69-52.69s52.69,23.59,52.69,52.69v245.12c0,29.1-23.59,52.69-52.69,52.69Z"/>
        <path class="cls-1" d="M549.71,654.21c-24.79,0-44.88-20.09-44.88-44.88v-157.43c0-24.79,20.09-44.88,44.88-44.88s44.88,20.09,44.88,44.88v157.43c0,24.79-20.09,44.88-44.88,44.88Z"/>
        <path class="cls-1" d="M443.92,598.74c-16.17,0-29.27-13.1-29.27-29.27v-77.72c0-16.17,13.1-29.27,29.27-29.27s29.27,13.1,29.27,29.27v77.72c0,16.17-13.1,29.27-29.27,29.27Z"/>
      </g>
    </g>
  </g>
</svg>